<mxfile host="app.diagrams.net" agent="Mozilla/5.0 (Windows NT 10.0; Win64; x64) AppleWebKit/537.36 (KHTML, like Gecko) Chrome/133.0.0.0 Safari/537.36" version="26.0.16">
  <diagram name="Page-1" id="7e0a89b8-554c-2b80-1dc8-d5c74ca68de4">
    <mxGraphModel dx="1259" dy="662" grid="1" gridSize="10" guides="1" tooltips="1" connect="1" arrows="1" fold="1" page="1" pageScale="1" pageWidth="1100" pageHeight="850" background="none" math="0" shadow="0">
      <root>
        <mxCell id="0" />
        <mxCell id="1" parent="0" />
        <mxCell id="IDQg8fl6bIcZGyg7sgiW-2" style="edgeStyle=orthogonalEdgeStyle;rounded=0;orthogonalLoop=1;jettySize=auto;html=1;exitX=1;exitY=0.8;exitDx=0;exitDy=0;" edge="1" parent="1" source="r-EeKwnptwa9FQMb00Me-15">
          <mxGeometry relative="1" as="geometry">
            <mxPoint x="780" y="656" as="targetPoint" />
          </mxGeometry>
        </mxCell>
        <mxCell id="IDQg8fl6bIcZGyg7sgiW-48" value="15" style="edgeLabel;html=1;align=center;verticalAlign=middle;resizable=0;points=[];" vertex="1" connectable="0" parent="IDQg8fl6bIcZGyg7sgiW-2">
          <mxGeometry x="-0.8352" y="3" relative="1" as="geometry">
            <mxPoint as="offset" />
          </mxGeometry>
        </mxCell>
        <mxCell id="r-EeKwnptwa9FQMb00Me-15" value="" style="html=1;shape=mxgraph.electrical.electro-mechanical.pushbutton;aspect=fixed;elSwitchState=on;" parent="1" vertex="1">
          <mxGeometry x="445" y="640" width="75" height="20" as="geometry" />
        </mxCell>
        <mxCell id="IDQg8fl6bIcZGyg7sgiW-41" style="edgeStyle=orthogonalEdgeStyle;rounded=0;orthogonalLoop=1;jettySize=auto;html=1;exitX=1;exitY=0.8;exitDx=0;exitDy=0;entryX=0;entryY=0.164;entryDx=0;entryDy=0;entryPerimeter=0;" edge="1" parent="1" source="r-EeKwnptwa9FQMb00Me-16" target="IDQg8fl6bIcZGyg7sgiW-77">
          <mxGeometry relative="1" as="geometry">
            <mxPoint x="880" y="976" as="targetPoint" />
          </mxGeometry>
        </mxCell>
        <mxCell id="r-EeKwnptwa9FQMb00Me-16" value="" style="html=1;shape=mxgraph.electrical.electro-mechanical.pushbutton;aspect=fixed;elSwitchState=on;" parent="1" vertex="1">
          <mxGeometry x="445" y="960" width="75" height="20" as="geometry" />
        </mxCell>
        <mxCell id="IDQg8fl6bIcZGyg7sgiW-74" style="edgeStyle=orthogonalEdgeStyle;rounded=0;orthogonalLoop=1;jettySize=auto;html=1;exitX=1;exitY=0.12;exitDx=0;exitDy=0;" edge="1" parent="1" source="r-EeKwnptwa9FQMb00Me-17">
          <mxGeometry relative="1" as="geometry">
            <mxPoint x="1080" y="543" as="targetPoint" />
          </mxGeometry>
        </mxCell>
        <mxCell id="r-EeKwnptwa9FQMb00Me-17" value="" style="html=1;shape=mxgraph.electrical.electro-mechanical.twoWaySwitch;aspect=fixed;elSwitchState=2;" parent="1" vertex="1">
          <mxGeometry x="150" y="470" width="75" height="26" as="geometry" />
        </mxCell>
        <mxCell id="r-EeKwnptwa9FQMb00Me-27" style="edgeStyle=orthogonalEdgeStyle;rounded=0;orthogonalLoop=1;jettySize=auto;html=1;" parent="1" source="r-EeKwnptwa9FQMb00Me-26" edge="1">
          <mxGeometry relative="1" as="geometry">
            <mxPoint x="450" y="733" as="targetPoint" />
          </mxGeometry>
        </mxCell>
        <mxCell id="r-EeKwnptwa9FQMb00Me-26" value="" style="shape=waypoint;sketch=0;fillStyle=solid;size=6;pointerEvents=1;points=[];fillColor=none;resizable=0;rotatable=0;perimeter=centerPerimeter;snapToPoint=1;" parent="1" vertex="1">
          <mxGeometry x="300" y="723" width="20" height="20" as="geometry" />
        </mxCell>
        <mxCell id="IDQg8fl6bIcZGyg7sgiW-1" style="edgeStyle=orthogonalEdgeStyle;rounded=0;orthogonalLoop=1;jettySize=auto;html=1;" edge="1" parent="1" source="r-EeKwnptwa9FQMb00Me-48" target="r-EeKwnptwa9FQMb00Me-15">
          <mxGeometry relative="1" as="geometry" />
        </mxCell>
        <mxCell id="IDQg8fl6bIcZGyg7sgiW-17" style="edgeStyle=orthogonalEdgeStyle;rounded=0;orthogonalLoop=1;jettySize=auto;html=1;" edge="1" parent="1" source="r-EeKwnptwa9FQMb00Me-48">
          <mxGeometry relative="1" as="geometry">
            <mxPoint x="450" y="800" as="targetPoint" />
            <Array as="points">
              <mxPoint x="310" y="800" />
              <mxPoint x="361" y="800" />
            </Array>
          </mxGeometry>
        </mxCell>
        <mxCell id="r-EeKwnptwa9FQMb00Me-48" value="" style="shape=waypoint;sketch=0;fillStyle=solid;size=6;pointerEvents=1;points=[];fillColor=none;resizable=0;rotatable=0;perimeter=centerPerimeter;snapToPoint=1;" parent="1" vertex="1">
          <mxGeometry x="300" y="640" width="20" height="20" as="geometry" />
        </mxCell>
        <mxCell id="r-EeKwnptwa9FQMb00Me-78" value="Drive ON" style="text;html=1;align=center;verticalAlign=middle;resizable=0;points=[];autosize=1;strokeColor=none;fillColor=none;" parent="1" vertex="1">
          <mxGeometry x="447.5" y="610" width="70" height="30" as="geometry" />
        </mxCell>
        <mxCell id="r-EeKwnptwa9FQMb00Me-79" value="&lt;div&gt;Manual Operation&lt;/div&gt;End Feeder" style="text;html=1;align=center;verticalAlign=middle;resizable=0;points=[];autosize=1;strokeColor=none;fillColor=none;" parent="1" vertex="1">
          <mxGeometry x="427.5" y="690" width="120" height="40" as="geometry" />
        </mxCell>
        <mxCell id="r-EeKwnptwa9FQMb00Me-81" value="Drive" style="text;html=1;align=center;verticalAlign=middle;resizable=0;points=[];autosize=1;strokeColor=none;fillColor=none;" parent="1" vertex="1">
          <mxGeometry x="457.5" y="760" width="50" height="30" as="geometry" />
        </mxCell>
        <mxCell id="r-EeKwnptwa9FQMb00Me-85" value="" style="endArrow=none;html=1;rounded=0;" parent="1" edge="1" source="IDQg8fl6bIcZGyg7sgiW-3">
          <mxGeometry width="50" height="50" relative="1" as="geometry">
            <mxPoint x="40" y="900" as="sourcePoint" />
            <mxPoint x="40" y="500" as="targetPoint" />
          </mxGeometry>
        </mxCell>
        <mxCell id="r-EeKwnptwa9FQMb00Me-86" value="L+" style="text;html=1;align=center;verticalAlign=middle;resizable=0;points=[];autosize=1;strokeColor=none;fillColor=none;" parent="1" vertex="1">
          <mxGeometry x="20" y="420" width="40" height="30" as="geometry" />
        </mxCell>
        <mxCell id="r-EeKwnptwa9FQMb00Me-96" value="&lt;b&gt;CONTROL PANEL&lt;/b&gt;" style="text;html=1;align=center;verticalAlign=middle;resizable=0;points=[];autosize=1;strokeColor=none;fillColor=none;" parent="1" vertex="1">
          <mxGeometry x="485" y="360" width="130" height="30" as="geometry" />
        </mxCell>
        <mxCell id="Pc5fEkgWnDJ0rDliruo7-10" value="E8" style="text;html=1;align=center;verticalAlign=middle;resizable=0;points=[];autosize=1;strokeColor=none;fillColor=none;" parent="1" vertex="1">
          <mxGeometry x="775" y="640" width="40" height="30" as="geometry" />
        </mxCell>
        <mxCell id="Pc5fEkgWnDJ0rDliruo7-13" value="&amp;nbsp;E2 - Adjust" style="text;html=1;align=center;verticalAlign=middle;resizable=0;points=[];autosize=1;strokeColor=none;fillColor=none;" parent="1" vertex="1">
          <mxGeometry x="775" y="785" width="80" height="30" as="geometry" />
        </mxCell>
        <mxCell id="Pc5fEkgWnDJ0rDliruo7-23" value="Auto" style="text;html=1;align=center;verticalAlign=middle;resizable=0;points=[];autosize=1;strokeColor=none;fillColor=none;" parent="1" vertex="1">
          <mxGeometry x="512.5" y="760" width="50" height="30" as="geometry" />
        </mxCell>
        <mxCell id="tsztMEHzvPIrC_lY6xDu-4" style="edgeStyle=orthogonalEdgeStyle;rounded=0;orthogonalLoop=1;jettySize=auto;html=1;exitX=1;exitY=0.84;exitDx=0;exitDy=0;" parent="1" source="tsztMEHzvPIrC_lY6xDu-1" edge="1">
          <mxGeometry relative="1" as="geometry">
            <mxPoint x="780" y="802" as="targetPoint" />
          </mxGeometry>
        </mxCell>
        <mxCell id="IDQg8fl6bIcZGyg7sgiW-33" value="7" style="edgeLabel;html=1;align=center;verticalAlign=middle;resizable=0;points=[];" vertex="1" connectable="0" parent="tsztMEHzvPIrC_lY6xDu-4">
          <mxGeometry x="-0.9025" y="3" relative="1" as="geometry">
            <mxPoint as="offset" />
          </mxGeometry>
        </mxCell>
        <mxCell id="tsztMEHzvPIrC_lY6xDu-1" value="" style="html=1;shape=mxgraph.electrical.electro-mechanical.switchDisconnector;aspect=fixed;elSwitchState=off;" parent="1" vertex="1">
          <mxGeometry x="450" y="785" width="75" height="20" as="geometry" />
        </mxCell>
        <mxCell id="IDQg8fl6bIcZGyg7sgiW-38" style="edgeStyle=orthogonalEdgeStyle;rounded=0;orthogonalLoop=1;jettySize=auto;html=1;exitX=1;exitY=0.84;exitDx=0;exitDy=0;" edge="1" parent="1" source="tsztMEHzvPIrC_lY6xDu-2">
          <mxGeometry relative="1" as="geometry">
            <mxPoint x="560" y="827" as="targetPoint" />
          </mxGeometry>
        </mxCell>
        <mxCell id="IDQg8fl6bIcZGyg7sgiW-39" value="31" style="edgeLabel;html=1;align=center;verticalAlign=middle;resizable=0;points=[];" vertex="1" connectable="0" parent="IDQg8fl6bIcZGyg7sgiW-38">
          <mxGeometry x="-0.7463" y="-1" relative="1" as="geometry">
            <mxPoint as="offset" />
          </mxGeometry>
        </mxCell>
        <mxCell id="tsztMEHzvPIrC_lY6xDu-2" value="" style="html=1;shape=mxgraph.electrical.electro-mechanical.switchDisconnector;aspect=fixed;elSwitchState=off;" parent="1" vertex="1">
          <mxGeometry x="450" y="810" width="75" height="20" as="geometry" />
        </mxCell>
        <mxCell id="tsztMEHzvPIrC_lY6xDu-5" value="" style="html=1;shape=mxgraph.electrical.electro-mechanical.pushbutton;aspect=fixed;elSwitchState=on;" parent="1" vertex="1">
          <mxGeometry x="445" y="720" width="75" height="20" as="geometry" />
        </mxCell>
        <mxCell id="tsztMEHzvPIrC_lY6xDu-7" value="Control Voltage ON (Safety Reset)" style="text;html=1;align=center;verticalAlign=middle;resizable=0;points=[];autosize=1;strokeColor=none;fillColor=none;" parent="1" vertex="1">
          <mxGeometry x="382.5" y="940" width="210" height="30" as="geometry" />
        </mxCell>
        <mxCell id="tsztMEHzvPIrC_lY6xDu-9" value="E9" style="text;html=1;align=center;verticalAlign=middle;resizable=0;points=[];autosize=1;strokeColor=none;fillColor=none;" parent="1" vertex="1">
          <mxGeometry x="775" y="718" width="40" height="30" as="geometry" />
        </mxCell>
        <mxCell id="tsztMEHzvPIrC_lY6xDu-10" value="" style="pointerEvents=1;verticalLabelPosition=bottom;shadow=0;dashed=0;align=center;html=1;verticalAlign=top;shape=mxgraph.electrical.electro-mechanical.break_contact;" parent="1" vertex="1">
          <mxGeometry x="447.5" y="1170" width="75" height="10" as="geometry" />
        </mxCell>
        <mxCell id="tsztMEHzvPIrC_lY6xDu-11" value="E-STOP" style="text;html=1;align=center;verticalAlign=middle;resizable=0;points=[];autosize=1;strokeColor=none;fillColor=none;" parent="1" vertex="1">
          <mxGeometry x="447.5" y="1140" width="70" height="30" as="geometry" />
        </mxCell>
        <mxCell id="IDQg8fl6bIcZGyg7sgiW-8" value="" style="endArrow=none;html=1;rounded=0;" edge="1" parent="1" target="IDQg8fl6bIcZGyg7sgiW-3">
          <mxGeometry width="50" height="50" relative="1" as="geometry">
            <mxPoint x="40" y="900" as="sourcePoint" />
            <mxPoint x="40" y="500" as="targetPoint" />
          </mxGeometry>
        </mxCell>
        <mxCell id="IDQg8fl6bIcZGyg7sgiW-3" value="" style="shape=waypoint;sketch=0;fillStyle=solid;size=6;pointerEvents=1;points=[];fillColor=none;resizable=0;rotatable=0;perimeter=centerPerimeter;snapToPoint=1;" vertex="1" parent="1">
          <mxGeometry x="30" y="723" width="20" height="20" as="geometry" />
        </mxCell>
        <mxCell id="IDQg8fl6bIcZGyg7sgiW-19" style="edgeStyle=orthogonalEdgeStyle;rounded=0;orthogonalLoop=1;jettySize=auto;html=1;exitX=1;exitY=0.8;exitDx=0;exitDy=0;entryX=-0.063;entryY=0.597;entryDx=0;entryDy=0;entryPerimeter=0;" edge="1" parent="1" source="tsztMEHzvPIrC_lY6xDu-5" target="tsztMEHzvPIrC_lY6xDu-9">
          <mxGeometry relative="1" as="geometry" />
        </mxCell>
        <mxCell id="IDQg8fl6bIcZGyg7sgiW-47" value="16" style="edgeLabel;html=1;align=center;verticalAlign=middle;resizable=0;points=[];" vertex="1" connectable="0" parent="IDQg8fl6bIcZGyg7sgiW-19">
          <mxGeometry x="-0.8337" y="3" relative="1" as="geometry">
            <mxPoint x="1" as="offset" />
          </mxGeometry>
        </mxCell>
        <mxCell id="IDQg8fl6bIcZGyg7sgiW-20" value="Safety Contactor&amp;nbsp;&lt;div&gt;K1&lt;/div&gt;" style="text;html=1;align=center;verticalAlign=middle;resizable=0;points=[];autosize=1;strokeColor=none;fillColor=none;" vertex="1" parent="1">
          <mxGeometry x="422.5" y="848" width="120" height="40" as="geometry" />
        </mxCell>
        <mxCell id="IDQg8fl6bIcZGyg7sgiW-25" value="" style="endArrow=classic;html=1;rounded=0;exitX=0.223;exitY=0.523;exitDx=0;exitDy=0;exitPerimeter=0;" edge="1" parent="1" source="IDQg8fl6bIcZGyg7sgiW-26">
          <mxGeometry width="50" height="50" relative="1" as="geometry">
            <mxPoint x="360" y="830" as="sourcePoint" />
            <mxPoint x="450" y="830" as="targetPoint" />
          </mxGeometry>
        </mxCell>
        <mxCell id="IDQg8fl6bIcZGyg7sgiW-31" value="32" style="edgeLabel;html=1;align=center;verticalAlign=middle;resizable=0;points=[];" vertex="1" connectable="0" parent="IDQg8fl6bIcZGyg7sgiW-25">
          <mxGeometry x="0.3659" y="3" relative="1" as="geometry">
            <mxPoint as="offset" />
          </mxGeometry>
        </mxCell>
        <mxCell id="IDQg8fl6bIcZGyg7sgiW-26" value="" style="shape=waypoint;sketch=0;fillStyle=solid;size=6;pointerEvents=1;points=[];fillColor=none;resizable=0;rotatable=0;perimeter=centerPerimeter;snapToPoint=1;" vertex="1" parent="1">
          <mxGeometry x="390" y="820" width="20" height="20" as="geometry" />
        </mxCell>
        <mxCell id="IDQg8fl6bIcZGyg7sgiW-27" value="" style="html=1;shape=mxgraph.electrical.electro-mechanical.switchDisconnector;aspect=fixed;elSwitchState=off;" vertex="1" parent="1">
          <mxGeometry x="442.5" y="880" width="75" height="20" as="geometry" />
        </mxCell>
        <mxCell id="IDQg8fl6bIcZGyg7sgiW-28" value="" style="endArrow=none;dashed=1;html=1;dashPattern=1 3;strokeWidth=2;rounded=0;" edge="1" parent="1">
          <mxGeometry width="50" height="50" relative="1" as="geometry">
            <mxPoint x="517.5" y="896" as="sourcePoint" />
            <mxPoint x="557.5" y="828" as="targetPoint" />
            <Array as="points">
              <mxPoint x="558" y="896" />
            </Array>
          </mxGeometry>
        </mxCell>
        <mxCell id="IDQg8fl6bIcZGyg7sgiW-29" value="" style="endArrow=none;dashed=1;html=1;dashPattern=1 3;strokeWidth=2;rounded=0;" edge="1" parent="1">
          <mxGeometry width="50" height="50" relative="1" as="geometry">
            <mxPoint x="440" y="900" as="sourcePoint" />
            <mxPoint x="400" y="830" as="targetPoint" />
            <Array as="points">
              <mxPoint x="400" y="900" />
            </Array>
          </mxGeometry>
        </mxCell>
        <mxCell id="IDQg8fl6bIcZGyg7sgiW-35" value="83" style="text;html=1;align=center;verticalAlign=middle;resizable=0;points=[];autosize=1;strokeColor=none;fillColor=none;" vertex="1" parent="1">
          <mxGeometry x="417.5" y="870" width="40" height="30" as="geometry" />
        </mxCell>
        <mxCell id="IDQg8fl6bIcZGyg7sgiW-36" value="84" style="text;html=1;align=center;verticalAlign=middle;resizable=0;points=[];autosize=1;strokeColor=none;fillColor=none;" vertex="1" parent="1">
          <mxGeometry x="502.5" y="870" width="40" height="30" as="geometry" />
        </mxCell>
        <mxCell id="IDQg8fl6bIcZGyg7sgiW-40" value="" style="endArrow=classic;html=1;rounded=0;entryX=0;entryY=0.8;entryDx=0;entryDy=0;" edge="1" parent="1" target="r-EeKwnptwa9FQMb00Me-16">
          <mxGeometry width="50" height="50" relative="1" as="geometry">
            <mxPoint x="930" y="1000" as="sourcePoint" />
            <mxPoint x="442.5" y="979" as="targetPoint" />
            <Array as="points">
              <mxPoint x="410" y="1000" />
              <mxPoint x="410" y="976" />
            </Array>
          </mxGeometry>
        </mxCell>
        <mxCell id="IDQg8fl6bIcZGyg7sgiW-42" value="T33" style="text;html=1;align=center;verticalAlign=middle;resizable=0;points=[];autosize=1;strokeColor=none;fillColor=none;" vertex="1" parent="1">
          <mxGeometry x="900" y="978" width="40" height="30" as="geometry" />
        </mxCell>
        <mxCell id="IDQg8fl6bIcZGyg7sgiW-43" value="T34" style="text;html=1;align=center;verticalAlign=middle;resizable=0;points=[];autosize=1;strokeColor=none;fillColor=none;" vertex="1" parent="1">
          <mxGeometry x="900" y="948" width="40" height="30" as="geometry" />
        </mxCell>
        <mxCell id="IDQg8fl6bIcZGyg7sgiW-45" value="" style="endArrow=classic;html=1;rounded=0;" edge="1" parent="1">
          <mxGeometry width="50" height="50" relative="1" as="geometry">
            <mxPoint x="520" y="1178" as="sourcePoint" />
            <mxPoint x="780" y="1178" as="targetPoint" />
          </mxGeometry>
        </mxCell>
        <mxCell id="IDQg8fl6bIcZGyg7sgiW-46" value="" style="endArrow=classic;html=1;rounded=0;entryX=0;entryY=1;entryDx=0;entryDy=0;entryPerimeter=0;" edge="1" parent="1" target="tsztMEHzvPIrC_lY6xDu-10">
          <mxGeometry width="50" height="50" relative="1" as="geometry">
            <mxPoint x="300" y="1180" as="sourcePoint" />
            <mxPoint x="350" y="1138" as="targetPoint" />
          </mxGeometry>
        </mxCell>
        <mxCell id="IDQg8fl6bIcZGyg7sgiW-71" style="edgeStyle=orthogonalEdgeStyle;rounded=0;orthogonalLoop=1;jettySize=auto;html=1;exitX=1;exitY=0.5;exitDx=0;exitDy=0;exitPerimeter=0;entryX=-0.049;entryY=0.455;entryDx=0;entryDy=0;entryPerimeter=0;" edge="1" parent="1" source="IDQg8fl6bIcZGyg7sgiW-49">
          <mxGeometry relative="1" as="geometry">
            <mxPoint x="885" y="585" as="targetPoint" />
          </mxGeometry>
        </mxCell>
        <mxCell id="IDQg8fl6bIcZGyg7sgiW-49" value="" style="pointerEvents=1;verticalLabelPosition=bottom;shadow=0;dashed=0;align=center;html=1;verticalAlign=top;shape=mxgraph.electrical.miscellaneous.light_bulb;" vertex="1" parent="1">
          <mxGeometry x="455" y="560" width="60" height="50" as="geometry" />
        </mxCell>
        <mxCell id="IDQg8fl6bIcZGyg7sgiW-50" value="" style="pointerEvents=1;verticalLabelPosition=bottom;shadow=0;dashed=0;align=center;html=1;verticalAlign=top;shape=mxgraph.electrical.miscellaneous.light_bulb;" vertex="1" parent="1">
          <mxGeometry x="450" y="1037" width="60" height="52" as="geometry" />
        </mxCell>
        <mxCell id="IDQg8fl6bIcZGyg7sgiW-51" value="Drive ON" style="text;html=1;align=center;verticalAlign=middle;resizable=0;points=[];autosize=1;strokeColor=none;fillColor=none;" vertex="1" parent="1">
          <mxGeometry x="450" y="528" width="70" height="30" as="geometry" />
        </mxCell>
        <mxCell id="IDQg8fl6bIcZGyg7sgiW-53" value="Control Voltage ON (Safety Reset)" style="text;html=1;align=center;verticalAlign=middle;resizable=0;points=[];autosize=1;strokeColor=none;fillColor=none;" vertex="1" parent="1">
          <mxGeometry x="390" y="1008" width="210" height="30" as="geometry" />
        </mxCell>
        <mxCell id="IDQg8fl6bIcZGyg7sgiW-56" value="" style="endArrow=classic;html=1;rounded=0;entryX=0;entryY=0.5;entryDx=0;entryDy=0;entryPerimeter=0;" edge="1" parent="1" target="IDQg8fl6bIcZGyg7sgiW-49">
          <mxGeometry width="50" height="50" relative="1" as="geometry">
            <mxPoint x="355" y="585" as="sourcePoint" />
            <mxPoint x="365" y="540" as="targetPoint" />
          </mxGeometry>
        </mxCell>
        <mxCell id="IDQg8fl6bIcZGyg7sgiW-57" value="19" style="edgeLabel;html=1;align=center;verticalAlign=middle;resizable=0;points=[];" vertex="1" connectable="0" parent="IDQg8fl6bIcZGyg7sgiW-56">
          <mxGeometry x="0.1529" relative="1" as="geometry">
            <mxPoint as="offset" />
          </mxGeometry>
        </mxCell>
        <mxCell id="IDQg8fl6bIcZGyg7sgiW-58" value="A1" style="text;html=1;align=center;verticalAlign=middle;resizable=0;points=[];autosize=1;strokeColor=none;fillColor=none;" vertex="1" parent="1">
          <mxGeometry x="320" y="570" width="40" height="30" as="geometry" />
        </mxCell>
        <mxCell id="IDQg8fl6bIcZGyg7sgiW-59" value="" style="endArrow=classic;html=1;rounded=0;entryX=0;entryY=0.5;entryDx=0;entryDy=0;entryPerimeter=0;" edge="1" parent="1" target="IDQg8fl6bIcZGyg7sgiW-50">
          <mxGeometry width="50" height="50" relative="1" as="geometry">
            <mxPoint x="930" y="1120" as="sourcePoint" />
            <mxPoint x="350" y="1008" as="targetPoint" />
            <Array as="points">
              <mxPoint x="410" y="1120" />
              <mxPoint x="410" y="1063" />
            </Array>
          </mxGeometry>
        </mxCell>
        <mxCell id="IDQg8fl6bIcZGyg7sgiW-64" value="17" style="edgeLabel;html=1;align=center;verticalAlign=middle;resizable=0;points=[];" vertex="1" connectable="0" parent="IDQg8fl6bIcZGyg7sgiW-59">
          <mxGeometry x="0.1795" relative="1" as="geometry">
            <mxPoint as="offset" />
          </mxGeometry>
        </mxCell>
        <mxCell id="IDQg8fl6bIcZGyg7sgiW-63" value="Pilz Safety Relay" style="text;html=1;align=center;verticalAlign=middle;resizable=0;points=[];autosize=1;strokeColor=none;fillColor=none;" vertex="1" parent="1">
          <mxGeometry x="940" y="900" width="110" height="30" as="geometry" />
        </mxCell>
        <mxCell id="IDQg8fl6bIcZGyg7sgiW-68" style="edgeStyle=orthogonalEdgeStyle;rounded=0;orthogonalLoop=1;jettySize=auto;html=1;exitX=1;exitY=0.5;exitDx=0;exitDy=0;exitPerimeter=0;" edge="1" parent="1" source="IDQg8fl6bIcZGyg7sgiW-50">
          <mxGeometry relative="1" as="geometry">
            <mxPoint x="720" y="1063" as="targetPoint" />
          </mxGeometry>
        </mxCell>
        <mxCell id="IDQg8fl6bIcZGyg7sgiW-73" style="edgeStyle=orthogonalEdgeStyle;rounded=0;orthogonalLoop=1;jettySize=auto;html=1;exitX=1;exitY=0.88;exitDx=0;exitDy=0;entryX=0.041;entryY=-0.113;entryDx=0;entryDy=0;entryPerimeter=0;" edge="1" parent="1" source="r-EeKwnptwa9FQMb00Me-17" target="r-EeKwnptwa9FQMb00Me-48">
          <mxGeometry relative="1" as="geometry" />
        </mxCell>
        <mxCell id="IDQg8fl6bIcZGyg7sgiW-77" value="" style="rounded=0;whiteSpace=wrap;html=1;" vertex="1" parent="1">
          <mxGeometry x="940" y="930" width="120" height="280" as="geometry" />
        </mxCell>
        <mxCell id="IDQg8fl6bIcZGyg7sgiW-79" value="14" style="text;html=1;align=center;verticalAlign=middle;resizable=0;points=[];autosize=1;strokeColor=none;fillColor=none;" vertex="1" parent="1">
          <mxGeometry x="910" y="1100" width="40" height="30" as="geometry" />
        </mxCell>
        <mxCell id="IDQg8fl6bIcZGyg7sgiW-80" value="M" style="text;html=1;align=center;verticalAlign=middle;resizable=0;points=[];autosize=1;strokeColor=none;fillColor=none;" vertex="1" parent="1">
          <mxGeometry x="715" y="1048" width="30" height="30" as="geometry" />
        </mxCell>
        <mxCell id="IDQg8fl6bIcZGyg7sgiW-81" value="" style="html=1;shape=mxgraph.electrical.electro-mechanical.switchDisconnector;aspect=fixed;elSwitchState=off;" vertex="1" parent="1">
          <mxGeometry x="962.5" y="1105" width="75" height="20" as="geometry" />
        </mxCell>
        <mxCell id="IDQg8fl6bIcZGyg7sgiW-82" value="13" style="text;html=1;align=center;verticalAlign=middle;resizable=0;points=[];autosize=1;strokeColor=none;fillColor=none;" vertex="1" parent="1">
          <mxGeometry x="1050" y="1100" width="40" height="30" as="geometry" />
        </mxCell>
      </root>
    </mxGraphModel>
  </diagram>
</mxfile>
